<svg width="98" height="153" viewBox="0 0 98 153" fill="none" xmlns="http://www.w3.org/2000/svg">
<path opacity="0.2" d="M22.5877 95.5833C20.2209 95.5833 17.8934 95.4062 15.6184 95.0587C17.8344 92.9607 20.3127 90.9938 23.0336 89.2302C32.986 82.7788 44.099 80.3857 53.3106 81.8412C53.8679 81.9265 54.3399 82.2215 54.6677 82.628C54.6481 82.6739 54.6218 82.7198 54.5956 82.7657C54.5956 82.7657 54.5956 82.7657 54.589 82.7722C46.2625 90.7119 34.9988 95.5833 22.5877 95.5833Z" fill="white"/>
<path opacity="0.6" d="M6.83759 106.471C8.96838 102.446 11.9253 98.5577 15.6165 95.0566C17.8915 95.4041 20.219 95.5811 22.5858 95.5811C34.9969 95.5811 46.2606 90.7098 54.5872 82.7701C46.7261 97.2005 31.4237 106.996 13.8332 106.996C11.4532 106.996 9.11918 106.819 6.83759 106.471Z" fill="white"/>
<path d="M6.83881 106.47C9.12041 106.818 11.4544 106.995 13.8344 106.995C31.4249 106.995 46.7274 97.1995 54.5884 82.7691C54.5949 82.7625 54.5949 82.7625 54.5949 82.7625C54.6343 82.7297 54.667 82.6969 54.6998 82.6642C55.0604 83.1297 55.2309 83.7394 55.1325 84.3688C55.1325 84.3688 55.303 84.6966 54.254 87.5683C51.7233 94.472 46.5766 103.212 35.621 110.312C25.4718 116.888 18.3517 117.924 8.89093 118.081C7.80258 118.101 6.70768 118.003 5.63901 117.78C4.23596 117.498 3.3574 116.108 3.68522 114.718C4.34085 111.958 5.39643 109.184 6.83881 106.47Z" fill="white"/>
<path d="M83.3194 152.182C90.9237 152.182 97.1454 146.415 97.1454 138.874V55.6961C97.1454 48.3765 90.9237 42.3877 83.3194 42.3877C75.7151 42.3877 69.4934 48.5983 69.4934 55.6961V138.874C69.4934 146.415 75.4847 152.182 83.3194 152.182Z" fill="white"/>
<path d="M0.363312 55.8065C0.363312 48.4258 5.44682 42.3871 12.0945 42.3871L85.4141 42.3871C91.8663 42.3871 97.1453 48.4258 97.1453 55.8065C97.1453 63.1871 91.6707 69.2258 85.4141 69.2258H12.0945C5.44682 69.2258 0.363312 63.4108 0.363312 55.8065Z" fill="white"/>
<path d="M97.1454 15.2472C97.1454 23.0488 90.7642 29.3745 83.3194 29.3745C75.6619 29.3745 69.4934 23.0488 69.4934 15.2472C69.4934 7.44565 75.6619 0.90918 83.3194 0.90918C90.7642 0.90918 97.1454 7.44565 97.1454 15.2472Z" fill="white"/>
</svg>
